#!OML:ASF I:\Actors\actors\Patient Classification 2\Patient 1\Session 1\actor1.ASF
:FULLY-SPECIFIED
:DEGREES
463
root 0.080581 17.5436 6.26948 -2.83687 1.52884 -2.87441
lowerback 18.7484 0.125636 -0.391445
upperback 4.7248 0.211027 1.78201
thorax -5.41222 0.11017 2.07498
lowerneck -11.3188 -10.9089 -11.77
upperneck 23.0282 -15.4905 10.3939
head 11.0706 -7.06373 3.48567
rclavicle -1.36664e-015 2.48481e-015
rhumerus -68.6311 57.5051 -97.5166
rradius 117.29
rwrist -45.7978
rhand 34.1389 -54.7372
rfingers 7.12502
rthumb 57.3845 -70.9983
lclavicle -1.36664e-015 2.48481e-015
lhumerus -79.5968 -44.3871 95.799
lradius 130.946
lwrist 57.948
lhand 34.7018 -5.73752
lfingers 7.12502
lthumb 57.8771 10.0937
rfemur -4.98395 -5.40947 12.4149
rtibia 38.4467
rfoot -28.1299 -0.786255
rtoes -32.3156
lfemur -15.1688 1.29481 -13.3631
ltibia 51.4408
lfoot -30.0016 3.88353
ltoes -56.8813
464
root 0.0810367 17.5493 6.28509 -2.73119 1.6915 -2.93018
lowerback 18.9281 -0.00197764 -0.00643836
upperback 4.54223 0.11688 1.71316
thorax -5.69912 0.0628516 1.80614
lowerneck -11.0868 -11.0044 -11.9459
upperneck 23.1747 -15.6636 10.5063
head 11.1299 -7.15202 3.53531
rclavicle -1.76421e-015 -6.06293e-015
rhumerus -69.6847 56.1401 -98.0412
rradius 117.451
rwrist -45.6576
rhand 33.787 -54.3309
rfingers 7.12502
rthumb 57.0756 -70.8537
lclavicle -1.76421e-015 -6.06293e-015
lhumerus -80.754 -43.2043 96.1084
lradius 131.13
lwrist 57.478
lhand 34.4371 -6.06468
lfingers 7.12502
lthumb 57.6457 9.97041
rfemur -4.9627 -5.60397 12.4715
rtibia 38.3809
rfoot -28.1749 -0.723678
rtoes -32.1659
lfemur -15.2148 1.15215 -13.3038
ltibia 51.3798
lfoot -30.0256 3.81706
ltoes -56.823
465
root 0.0800518 17.5535 6.29643 -2.60236 1.67335 -2.89739
lowerback 18.7418 -0.0634074 -0.056004
upperback 4.62583 0.0278952 1.7725
thorax -5.50778 0.018689 1.91636
lowerneck -11.011 -11.0275 -12.0776
upperneck 23.1147 -15.6885 10.5767
head 11.115 -7.17107 3.57998
rclavicle -6.21202e-015 -5.06901e-015
rhumerus -69.6353 54.1237 -97.4466
rradius 117.597
rwrist -44.8575
rhand 33.8684 -54.295
rfingers 7.12502
rthumb 57.1472 -70.7578
lclavicle -6.21202e-015 -5.06901e-015
lhumerus -81.1109 -41.3317 95.7996
lradius 131.283
lwrist 56.6541
lhand 34.4382 -6.23851
lfingers 7.12502
lthumb 57.6467 9.79574
rfemur -5.04476 -5.62429 12.4554
rtibia 38.3472
rfoot -28.1616 -0.71125
rtoes -32.1746
lfemur -15.279 1.17023 -13.3298
ltibia 51.3321
lfoot -30.0237 3.80692
ltoes -56.8337
466
root 0.0788436 17.5537 6.3017 -2.46253 1.45728 -2.82059
lowerback 18.8253 -0.0312703 -0.0529442
upperback 4.58083 0.0700664 1.75211
thorax -5.60174 0.0396766 1.88415
lowerneck -10.8822 -11.0561 -12.2378
upperneck 23.1178 -15.7552 10.7398
head 11.1307 -7.2031 3.65833
rclavicle 1.31446e-014 1.64991e-014
rhumerus -69.687 51.356 -96.8408
rradius 117.756
rwrist -44.0036
rhand 33.8898 -54.2677
rfingers 7.12502
rthumb 57.1659 -70.7146
lclavicle 1.31446e-014 1.64991e-014
lhumerus -81.4319 -39.1205 95.3699
lradius 131.44
lwrist 55.6447
lhand 34.902 -6.05002
lfingers 7.12502
lthumb 58.0517 9.62486
rfemur -5.24229 -5.4806 12.3992
rtibia 38.3761
rfoot -28.1147 -0.666756
rtoes -32.1521
lfemur -15.3511 1.32917 -13.4085
ltibia 51.3035
lfoot -30.0442 3.87614
ltoes -56.8586
467
root 0.0763572 17.5523 6.30788 -2.32296 1.30353 -2.73699
lowerback 19.2431 -0.00198761 0.0887886
upperback 4.31914 0.138344 1.67776
thorax -6.10664 0.0742865 1.71278
lowerneck -10.4974 -11.0641 -12.4486
upperneck 23.1059 -15.8158 10.9288
head 11.0973 -7.24561 3.76832
rclavicle 2.73329e-016 -8.74653e-015
rhumerus -69.9868 47.8881 -96.2763
rradius 117.908
rwrist -43.2315
rhand 34.0164 -54.3776
rfingers 7.12502
rthumb 57.2771 -70.7304
lclavicle 2.73329e-016 -8.74653e-015
lhumerus -82.0593 -36.5182 95.0457
lradius 131.641
lwrist 54.6479
lhand 36.3327 -4.9567
lfingers 7.12502
lthumb 59.292 9.54598
rfemur -5.45326 -5.40517 12.3279
rtibia 38.4763
rfoot -28.1239 -0.584631
rtoes -32.112
lfemur -15.44 1.40664 -13.5041
ltibia 51.2965
lfoot -30.0741 3.99855
ltoes -56.9031
468
root 0.0732807 17.5518 6.31514 -2.16794 1.20555 -2.6314
lowerback 19.2619 0.00113722 -0.136126
upperback 4.32183 0.107079 1.80309
thorax -6.11324 0.0627264 1.98325
lowerneck -10.2621 -10.9816 -12.4888
upperneck 22.8205 -15.6491 10.8219
head 10.9156 -7.19886 3.77541
rclavicle -1.35174e-014 -6.65929e-015
rhumerus -69.447 44.5222 -94.7945
rradius 118.063
rwrist -42.6873
rhand 33.9371 -54.5868
rfingers 7.12502
rthumb 57.2075 -70.9986
lclavicle -1.35174e-014 -6.65929e-015
lhumerus -82.1315 -33.0711 94.4782
lradius 131.838
lwrist 53.7816
lhand 37.3855 -2.78611
lfingers 7.12502
lthumb 60.1948 10.788
rfemur -5.68762 -5.35819 12.2355
rtibia 38.6308
rfoot -28.1796 -0.516471
rtoes -32.1007
lfemur -15.5685 1.45087 -13.6161
ltibia 51.3187
lfoot -30.0872 4.07832
ltoes -56.8966
